<svg height="512pt" viewBox="0 0 512 512" width="512pt" xmlns="http://www.w3.org/2000/svg"><path d="m480 256c0 123.710938-100.289062 224-224 224s-224-100.289062-224-224 100.289062-224 224-224 224 100.289062 224 224zm0 0" fill="#e76e54"/><path d="m344.894531 228.113281c4.546875-11.167969 7.105469-23.34375 7.105469-36.113281 0-52.945312-43.054688-96-96-96s-96 43.054688-96 96c0 12.769531 2.558594 24.945312 7.105469 36.113281-24.066407 23.277344-39.105469 55.839844-39.105469 91.886719v112h256v-112c0-36.046875-15.039062-68.609375-39.105469-91.886719zm0 0" fill="#dd523c"/><g fill="#57565c"><path d="m240 416h32v96h-32zm0 0"/><path d="m416 240h96v32h-96zm0 0"/><path d="m0 240h96v32h-96zm0 0"/><path d="m240 0h32v96h-32zm0 0"/></g><path d="m352 320v80h-192v-80c0-24.640625 9.28125-47.039062 24.640625-64 17.4375-19.679688 43.039063-32 71.359375-32s53.921875 12.320312 71.359375 32c15.359375 16.960938 24.640625 39.359375 24.640625 64zm0 0" fill="#ecce93"/><path d="m272 304h32v32h-32zm0 0" fill="#fff"/><path d="m208 304h32v32h-32zm0 0" fill="#fff"/><path d="m327.359375 256c0 17.601562-32 32-71.359375 32s-71.359375-14.398438-71.359375-32c17.4375-19.679688 43.039063-32 71.359375-32s53.921875 12.320312 71.359375 32zm0 0" fill="#e5bd76"/><path d="m320 192c0 35.347656-28.652344 64-64 64s-64-28.652344-64-64 28.652344-64 64-64 64 28.652344 64 64zm0 0" fill="#ecce93"/></svg>