<?xml version="1.0"?>
<svg xmlns="http://www.w3.org/2000/svg" xmlns:xlink="http://www.w3.org/1999/xlink" version="1.1" id="Capa_1" x="0px" y="0px" width="512px" height="512px" viewBox="0 0 612 612" style="enable-background:new 0 0 612 612;" xml:space="preserve"><g><g>
	<g id="_x38__41_">
		<g>
			<path d="M444.644,306l138.644-138.644c38.284-38.284,38.284-100.36,0-138.644c-38.283-38.284-100.359-38.284-138.644,0     L306,167.356L167.356,28.713c-38.284-38.284-100.36-38.284-138.644,0s-38.284,100.36,0,138.644L167.356,306L28.713,444.644     c-38.284,38.283-38.284,100.36,0,138.644c38.284,38.284,100.36,38.284,138.644,0L306,444.644l138.644,138.644     c38.283,38.284,100.36,38.284,138.644,0c38.284-38.283,38.284-100.36,0-138.644L444.644,306z" data-original="#000000" class="active-path" data-old_color="#000000" fill="#FFFFFF"/>
		</g>
	</g>
</g></g> </svg>
