<?xml version="1.0"?>
<svg xmlns="http://www.w3.org/2000/svg" height="512px" viewBox="-8 0 381 381.46318" width="512px"><g><path d="m46.105469 214.648438-16.773438 77.082031 77.082031-16.773438zm0 0" data-original="#000000" class="active-path" data-old_color="#000000" fill="#FFFFFF"/><path d="m305.996094 87.589844c9.636718-9.613282 15.058594-22.664063 15.066406-36.273438.007812-13.613281-5.394531-26.667968-15.019531-36.292968-.019531-.019532-.039063-.039063-.054688-.058594-9.59375-9.613282-22.625-15.0000002-36.207031-14.964844h-.035156c-13.617188-.03125-26.683594 5.394531-36.277344 15.066406l-36.160156 36.25 72.433594 72.4375zm0 0" data-original="#000000" class="active-path" data-old_color="#000000" fill="#FFFFFF"/><path d="m255.582031 137.878906-72.398437-72.398437-128.820313 129.140625 72.078125 72.082031zm0 0" data-original="#000000" class="active-path" data-old_color="#000000" fill="#FFFFFF"/><path d="m354.503906 361.464844h-344.273437c-5.523438 0-10 4.476562-10 10 0 5.519531 4.476562 10 10 10h344.273437c5.523438 0 10-4.480469 10-10 0-5.523438-4.476562-10-10-10zm0 0" data-original="#000000" class="active-path" data-old_color="#000000" fill="#FFFFFF"/></g> </svg>
